<svg xmlns="http://www.w3.org/2000/svg" viewBox="0 0 1600 900" preserveAspectRatio="xMidYMid slice">
  <defs>
    <linearGradient id="bg" x1="0" y1="0" x2="1" y2="1">
      <stop stop-color="#07111f"/>
      <stop offset="0.48" stop-color="#0f2440"/>
      <stop offset="1" stop-color="#133249"/>
    </linearGradient>
    <filter id="blur"><feGaussianBlur stdDeviation="24"/></filter>
  </defs>

  <rect width="1600" height="900" fill="url(#bg)"/>
  <g filter="url(#blur)" opacity="0.82">
    <path d="M-220 180C40 0 290 20 560 170s450 210 760 120 430-90 560 10v430c-230-110-390-120-690-32s-500 100-800-42S40 580-220 700Z" fill="#44f4ca"/>
    <path d="M-250 360C60 180 330 220 590 360s400 210 690 140 430-150 620-80v360c-230-80-420-70-700 20s-500 110-770 14S20 660-250 790Z" fill="#86ffd9" opacity="0.56"/>
    <path d="M-180 520C80 350 300 370 510 500s390 180 660 120 460-90 650 0v280c-220-70-410-50-690 30s-470 86-710 4S50 760-180 860Z" fill="#a473ff" opacity="0.54"/>
  </g>
  <rect width="1600" height="900" fill="rgba(4,10,20,0.12)"/>
</svg>
