<svg xmlns="http://www.w3.org/2000/svg" viewBox="0 0 1600 900" preserveAspectRatio="xMidYMid slice">
  <defs>
    <linearGradient id="night" x1="0" y1="0" x2="0" y2="1">
      <stop stop-color="#08101f"/>
      <stop offset="1" stop-color="#20304a"/>
    </linearGradient>
  </defs>
  <rect width="1600" height="900" fill="url(#night)"/>
  <g fill="#0d1728">
    <rect x="80" y="340" width="190" height="560"/>
    <rect x="290" y="250" width="220" height="650"/>
    <rect x="520" y="390" width="170" height="510"/>
    <rect x="710" y="180" width="240" height="720"/>
    <rect x="980" y="300" width="160" height="600"/>
    <rect x="1170" y="230" width="200" height="670"/>
  </g>
  <g fill="#ffd86a">
    <rect x="118" y="384" width="18" height="18"/><rect x="158" y="430" width="18" height="18"/><rect x="198" y="474" width="18" height="18"/>
    <rect x="338" y="296" width="20" height="20"/><rect x="390" y="346" width="20" height="20"/><rect x="442" y="394" width="20" height="20"/>
    <rect x="760" y="226" width="20" height="20"/><rect x="820" y="286" width="20" height="20"/><rect x="880" y="346" width="20" height="20"/>
    <rect x="1230" y="272" width="20" height="20"/><rect x="1290" y="330" width="20" height="20"/><rect x="1230" y="390" width="20" height="20"/>
  </g>
  <rect y="812" width="1600" height="88" fill="#071120"/>
</svg>
